<svg xmlns="http://www.w3.org/2000/svg" xml:space="preserve" fill-rule="evenodd" stroke-linejoin="round" stroke-miterlimit="2" clip-rule="evenodd" viewBox="0 0 100 100">
  <path fill="#ccc" d="M23.928 53.519h-5.633v5.82h5.633v-5.82Zm0-11.25h-5.633v5.817h5.633v-5.817Zm0-11.252h-5.633v5.819h5.633v-5.819Zm0-11.25h-5.633v5.819h5.633v-5.819Zm-.951-13.215c-8.573 0-15.558 6.935-15.558 15.479V70.3a2.265 2.265 0 0 0 2.252 2.252h80.657a2.265 2.265 0 0 0 2.253-2.252V22.031c0-8.544-6.987-15.479-15.561-15.479H22.977Zm0 4.505H77.02c6.171 0 11.055 4.863 11.055 10.974v46.017H11.923V22.031c0-6.111 4.884-10.974 11.054-10.974Zm46.985 32.037c-5.138 0-9.365 4.23-9.365 9.369a9.38 9.38 0 0 0 2.626 6.508l3.443-3.323a4.589 4.589 0 0 1-1.285-3.185c0-2.516 2.07-4.584 4.581-4.584 2.511 0 4.58 2.069 4.58 4.584a4.589 4.589 0 0 1-1.285 3.185l3.443 3.323a9.38 9.38 0 0 0 2.626-6.508c0-5.14-4.226-9.369-9.364-9.369Zm0-23.327c-5.138 0-9.365 4.229-9.365 9.368a9.38 9.38 0 0 0 2.626 6.508l3.443-3.321a4.592 4.592 0 0 1-1.285-3.187c0-2.516 2.07-4.584 4.581-4.584 2.511 0 4.58 2.069 4.58 4.584a4.592 4.592 0 0 1-1.285 3.187l3.443 3.321a9.38 9.38 0 0 0 2.626-6.508c0-5.139-4.226-9.368-9.364-9.368ZM41.866 42.726c-5.137 0-9.364 4.23-9.364 9.369a9.38 9.38 0 0 0 2.626 6.508l3.443-3.323a4.589 4.589 0 0 1-1.285-3.185c0-2.516 2.069-4.584 4.58-4.584 2.512 0 4.581 2.069 4.581 4.584a4.589 4.589 0 0 1-1.285 3.185l3.443 3.323a9.38 9.38 0 0 0 2.626-6.508c0-5.14-4.227-9.369-9.365-9.369Zm0-22.959c-5.137 0-9.364 4.229-9.364 9.368a9.38 9.38 0 0 0 2.626 6.508l3.443-3.321a4.592 4.592 0 0 1-1.285-3.187c0-2.516 2.069-4.584 4.58-4.584 2.512 0 4.581 2.069 4.581 4.584a4.592 4.592 0 0 1-1.285 3.187l3.443 3.321a9.38 9.38 0 0 0 2.626-6.508c0-5.139-4.227-9.368-9.365-9.368Z"/>
</svg>
